<?xml version="1.0" standalone="no"?>
<!DOCTYPE svg PUBLIC "-//W3C//DTD SVG 20010904//EN"
 "http://www.w3.org/TR/2001/REC-SVG-20010904/DTD/svg10.dtd">
<svg version="1.0" xmlns="http://www.w3.org/2000/svg"
 width="912.000000pt" height="580.000000pt" viewBox="0 0 912.000000 580.000000"
 preserveAspectRatio="xMidYMid meet">

<g transform="translate(0.000000,580.000000) scale(0.100000,-0.100000)"
fill="#000000" stroke="none">
<path d="M1116 2781 c-4 -5 -114 -441 -246 -968 -132 -527 -247 -970 -255
-986 -9 -15 -13 -32 -10 -37 7 -12 631 -14 638 -3 4 7 69 274 207 853 10 41
28 120 41 175 24 106 38 136 56 113 5 -7 71 -141 146 -298 74 -157 179 -375
232 -485 54 -110 115 -237 136 -282 l39 -83 300 0 300 0 5 23 c34 144 73 311
106 445 78 321 118 489 144 597 48 200 95 397 161 663 35 145 62 267 59 273
-10 15 -610 12 -622 -3 -6 -7 -36 -119 -67 -248 -97 -405 -195 -814 -204 -845
-9 -34 -39 -46 -48 -18 -14 40 -127 284 -305 661 -27 57 -49 105 -49 107 0 5
-134 289 -153 325 l-13 25 -296 3 c-179 1 -299 -1 -302 -7z"/>
<path d="M3402 2777 c-6 -7 -22 -62 -36 -122 -14 -61 -37 -157 -51 -215 -41
-168 -71 -296 -103 -435 -17 -71 -51 -215 -76 -320 -56 -238 -140 -591 -167
-710 -12 -49 -27 -110 -35 -134 -7 -24 -11 -47 -8 -52 3 -5 280 -9 622 -9 555
0 632 2 767 20 82 11 187 29 235 41 259 64 465 242 532 463 45 148 4 338 -90
417 -22 19 -76 52 -119 74 -93 49 -103 69 -41 85 130 36 208 104 278 243 48
97 50 106 50 182 0 125 -41 215 -138 307 -104 99 -219 149 -386 167 -145 17
-1220 15 -1234 -2z m1020 -406 c35 -13 69 -36 89 -58 28 -32 31 -41 27 -84
-12 -117 -150 -205 -361 -228 -133 -15 -262 -14 -275 2 -7 8 2 62 33 187 23
96 46 183 50 194 8 17 19 18 194 14 161 -4 194 -8 243 -27z m-123 -776 c33
-10 69 -31 89 -51 34 -34 35 -37 29 -95 -13 -150 -128 -211 -423 -225 -149 -7
-271 7 -281 32 -6 16 75 334 90 353 17 21 422 10 496 -14z"/>
<path d="M6503 2778 c-6 -7 -20 -51 -32 -98 -56 -219 -190 -737 -233 -900 -16
-63 -42 -164 -58 -225 -87 -339 -122 -474 -155 -600 -21 -77 -38 -147 -39
-155 -1 -13 44 -15 340 -18 l341 -2 48 187 c26 104 54 216 62 251 l15 63 218
174 c120 96 221 178 225 184 3 6 15 11 26 11 15 0 35 -32 93 -152 41 -84 122
-252 181 -373 59 -121 120 -248 136 -282 l28 -63 356 0 c227 0 355 4 355 10 0
5 -25 54 -55 109 -30 55 -55 102 -55 104 0 3 -17 36 -38 74 -22 37 -59 106
-84 153 -185 347 -232 436 -319 597 -55 100 -96 188 -93 195 3 7 123 110 266
228 525 433 633 523 636 531 2 5 -183 9 -421 9 l-425 0 -54 -48 c-29 -26 -93
-83 -143 -127 -49 -43 -126 -111 -170 -150 -44 -40 -162 -145 -262 -233 -100
-89 -184 -166 -188 -172 -3 -5 -15 -10 -27 -10 -23 0 -24 -4 16 145 74 272
148 558 150 575 1 13 -41 15 -315 18 -246 2 -319 -1 -326 -10z"/>
</g>
</svg>
